<svg width="14" height="14" viewBox="0 0 14 14" fill="none" xmlns="http://www.w3.org/2000/svg">
<path fill-rule="evenodd" clip-rule="evenodd" d="M6.99997 2.85742C5.80548 2.86024 4.66072 3.33951 3.81609 4.1904C2.97146 5.04129 2.49571 6.19453 2.49291 7.39787C2.49291 8.99787 3.30909 10.389 4.54174 11.2005V9.98987C4.19307 9.6559 3.91549 9.25397 3.72588 8.80852C3.53627 8.36308 3.4386 7.88343 3.4388 7.39876C3.43973 6.44757 3.81522 5.5356 4.48287 4.86301C5.15052 4.19042 6.05578 3.81214 6.99997 3.8112C7.94386 3.81238 8.84876 4.19063 9.51619 4.86301C10.1836 5.53539 10.5591 6.44699 10.5603 7.39787C10.5603 8.41653 10.1367 9.33565 9.45732 9.98898V11.1996C10.0852 10.7868 10.6012 10.2231 10.9589 9.55922C11.3166 8.89537 11.5046 8.1523 11.5061 7.39698C11.5034 6.19364 11.0276 5.0404 10.183 4.18951C9.33834 3.33862 8.19358 2.85935 6.99909 2.85653L6.99997 2.85742ZM6.99997 0.731201C5.24558 0.733553 3.56371 1.43669 2.32317 2.68642C1.08262 3.93615 0.384659 5.63048 0.382324 7.39787C0.382324 10.293 2.22468 12.7632 4.78968 13.6823L4.71203 12.7045C3.50676 12.171 2.51997 11.2366 1.91685 10.0578C1.31372 8.8789 1.13086 7.5271 1.39888 6.22864C1.66689 4.93018 2.36952 3.76386 3.38914 2.92492C4.40876 2.08598 5.6835 1.62534 6.99997 1.62009C8.52035 1.62244 9.97779 2.23192 11.0529 3.31496C12.1279 4.39799 12.7329 5.86623 12.7353 7.39787C12.7341 8.52293 12.4074 9.62325 11.7951 10.5642C11.1828 11.5051 10.3115 12.2458 9.28791 12.6956L9.21027 13.6734C10.4987 13.2146 11.6143 12.3648 12.4035 11.241C13.1928 10.1171 13.617 8.77453 13.6176 7.39787C13.6153 5.63048 12.9173 3.93615 11.6768 2.68642C10.4362 1.43669 8.75436 0.733553 6.99997 0.731201Z" fill="#919EAB"/>
<path d="M6.99997 0.731201C5.24558 0.733553 3.56371 1.43669 2.32317 2.68642C1.08262 3.93615 0.384659 5.63048 0.382324 7.39787C0.382324 10.293 2.22468 12.7632 4.78968 13.6823L4.71203 12.7045C3.50676 12.171 2.51997 11.2366 1.91685 10.0578C1.31372 8.8789 1.13086 7.5271 1.39888 6.22864C1.66689 4.93018 2.36952 3.76386 3.38914 2.92492C4.40876 2.08598 5.6835 1.62534 6.99997 1.62009C8.52035 1.62244 9.97779 2.23192 11.0529 3.31496C12.1279 4.39799 12.7329 5.86623 12.7353 7.39787C12.7341 8.52293 12.4074 9.62325 11.7951 10.5642C11.1828 11.5051 10.3115 12.2458 9.28791 12.6956L9.21027 13.6734C10.4987 13.2146 11.6143 12.3648 12.4035 11.241C13.1928 10.1171 13.617 8.77453 13.6176 7.39787C13.6153 5.63048 12.9173 3.93615 11.6768 2.68642C10.4362 1.43669 8.75436 0.733553 6.99997 0.731201M6.99997 2.85742C5.80548 2.86024 4.66072 3.33951 3.81609 4.1904C2.97146 5.04129 2.49571 6.19453 2.49291 7.39787C2.49291 8.99787 3.30909 10.389 4.54174 11.2005V9.98987C4.19307 9.6559 3.91549 9.25397 3.72588 8.80852C3.53627 8.36308 3.4386 7.88343 3.4388 7.39876C3.43973 6.44757 3.81522 5.5356 4.48287 4.86301C5.15052 4.19042 6.05578 3.81214 6.99997 3.8112C7.94386 3.81238 8.84876 4.19063 9.51619 4.86301C10.1836 5.53539 10.5591 6.44699 10.5603 7.39787C10.5603 8.41653 10.1367 9.33565 9.45732 9.98898V11.1996C10.0852 10.7868 10.6012 10.2231 10.9589 9.55922C11.3166 8.89537 11.5046 8.1523 11.5061 7.39698C11.5034 6.19364 11.0276 5.0404 10.183 4.18951C9.33834 3.33862 8.19358 2.85935 6.99909 2.85653L6.99997 2.85742Z" stroke="#919EAB" stroke-width="0.3"/>
</svg>
