<svg width="16" height="14" viewBox="0 0 16 14" fill="none" xmlns="http://www.w3.org/2000/svg">
<path d="M9.99996 0.500488H3.99996C3.44663 0.500488 2.97329 0.833821 2.77329 1.31382L0.759959 6.01382C0.699959 6.16715 0.666626 6.32715 0.666626 6.50049V7.77382L0.673293 7.78049L0.666626 7.83382C0.666626 8.56715 1.26663 9.16715 1.99996 9.16715H6.20663L5.57329 12.2138L5.55329 12.4272C5.55329 12.7005 5.66663 12.9538 5.84663 13.1338L6.55329 13.8338L10.9466 9.44049C11.1866 9.20049 11.3333 8.86715 11.3333 8.50049V1.83382C11.3333 1.10049 10.7333 0.500488 9.99996 0.500488ZM12.6666 0.500488V8.50049H15.3333V0.500488H12.6666Z" fill="black"/>
</svg>
